<svg width="22" height="22" viewBox="0 0 22 22" fill="none" xmlns="http://www.w3.org/2000/svg">
<path d="M3.66675 6.875V15.5215C3.66675 15.5594 3.68815 15.594 3.72203 15.611L10.9554 19.2276C10.9835 19.2417 11.0166 19.2417 11.0448 19.2276L18.2781 15.611C18.312 15.594 18.3334 15.5594 18.3334 15.5215V6.875" stroke="#1D1D1D" stroke-width="2" stroke-linecap="round"/>
<path d="M11.0001 11L18.1785 6.96216C18.2464 6.92393 18.2464 6.82607 18.1785 6.78784L11.0491 2.77758C11.0187 2.76045 10.9815 2.76045 10.9511 2.77758L3.82169 6.78784C3.75373 6.82607 3.75373 6.92393 3.8217 6.96216L11.0001 11ZM11.0001 11V18.3333" stroke="#1D1D1D" stroke-width="2" stroke-linecap="round"/>
<path d="M7.79175 5.04166L14.1373 8.42597C14.4632 8.59976 14.6667 8.93901 14.6667 9.30832V11.9167" stroke="#1D1D1D" stroke-width="2" stroke-linecap="round"/>
</svg>
