<svg width="20" height="16" viewBox="0 0 20 16" fill="none" xmlns="http://www.w3.org/2000/svg">
<path d="M2.49984 2.16668L8.9766 7.20416C9.57845 7.67227 10.4212 7.67227 11.0231 7.20416L17.4998 2.16668M4.33317 14.6667H15.6665C16.5999 14.6667 17.0666 14.6667 17.4232 14.485C17.7368 14.3252 17.9917 14.0703 18.1515 13.7567C18.3332 13.4001 18.3332 12.9334 18.3332 12V4.00001C18.3332 3.06659 18.3332 2.59988 18.1515 2.24336C17.9917 1.92976 17.7368 1.67479 17.4232 1.515C17.0666 1.33334 16.5999 1.33334 15.6665 1.33334H4.33317C3.39975 1.33334 2.93304 1.33334 2.57652 1.515C2.26292 1.67479 2.00795 1.92976 1.84816 2.24336C1.6665 2.59988 1.6665 3.06659 1.6665 4.00001V12C1.6665 12.9334 1.6665 13.4001 1.84816 13.7567C2.00795 14.0703 2.26292 14.3252 2.57652 14.485C2.93304 14.6667 3.39975 14.6667 4.33317 14.6667Z" stroke="#10BC00" stroke-width="2"/>
</svg>
