<svg width="16" height="17" viewBox="0 0 16 17" fill="none" xmlns="http://www.w3.org/2000/svg">
<path d="M15.6668 5.66668C15.6668 5.11439 15.2191 4.66668 14.6668 4.66668C14.1145 4.66668 13.6668 5.11439 13.6668 5.66668H14.6668H15.6668ZM2.3335 5.66668C2.3335 5.11439 1.88578 4.66668 1.3335 4.66668C0.781211 4.66668 0.333496 5.11439 0.333496 5.66668H1.3335H2.3335ZM2.24351 15.485L2.6975 14.594H2.6975L2.24351 15.485ZM1.51515 14.7567L2.40616 14.3027L2.40616 14.3027L1.51515 14.7567ZM14.4852 14.7567L13.5942 14.3027V14.3027L14.4852 14.7567ZM13.7568 15.485L13.3028 14.594H13.3028L13.7568 15.485ZM7.00016 1.41668L7.60016 2.21668L7.00016 1.41668ZM1.42238 5.60001L2.02238 6.40001H2.02238L1.42238 5.60001ZM1.42238 5.73334L2.02239 4.93334L2.02238 4.93334L1.42238 5.73334ZM7.00016 9.91668L6.40016 10.7167H6.40016L7.00016 9.91668ZM9.00016 9.91668L9.60016 10.7167L9.00016 9.91668ZM14.5779 5.73334L13.9779 4.93334L14.5779 5.73334ZM14.5779 5.60001L15.1779 4.80001L14.5779 5.60001ZM9.00016 1.41668L8.40016 2.21668L9.00016 1.41668ZM14.6668 5.66668H13.6668V13H14.6668H15.6668V5.66668H14.6668ZM12.0002 15.6667V14.6667H4.00016V15.6667V16.6667H12.0002V15.6667ZM1.3335 13H2.3335V5.66668H1.3335H0.333496V13H1.3335ZM4.00016 15.6667V14.6667C3.51695 14.6667 3.21468 14.6659 2.98693 14.6473C2.77085 14.6296 2.71129 14.601 2.6975 14.594L2.24351 15.485L1.78952 16.376C2.13225 16.5507 2.48431 16.6129 2.82407 16.6406C3.15215 16.6675 3.54995 16.6667 4.00016 16.6667V15.6667ZM1.3335 13H0.333496C0.333496 13.4502 0.332718 13.848 0.359524 14.1761C0.387284 14.5159 0.449517 14.8679 0.624146 15.2107L1.51515 14.7567L2.40616 14.3027C2.39913 14.2889 2.37054 14.2293 2.35288 14.0132C2.33427 13.7855 2.3335 13.4832 2.3335 13H1.3335ZM2.24351 15.485L2.6975 14.594C2.57206 14.5301 2.47007 14.4281 2.40616 14.3027L1.51515 14.7567L0.624145 15.2107C0.879808 15.7124 1.28776 16.1204 1.78952 16.376L2.24351 15.485ZM14.6668 13H13.6668C13.6668 13.4832 13.6661 13.7855 13.6474 14.0132C13.6298 14.2293 13.6012 14.2889 13.5942 14.3027L14.4852 14.7567L15.3762 15.2107C15.5508 14.8679 15.613 14.5159 15.6408 14.1761C15.6676 13.848 15.6668 13.4502 15.6668 13H14.6668ZM12.0002 15.6667V16.6667C12.4504 16.6667 12.8482 16.6675 13.1763 16.6406C13.516 16.6129 13.8681 16.5507 14.2108 16.376L13.7568 15.485L13.3028 14.594C13.289 14.601 13.2295 14.6296 13.0134 14.6473C12.7856 14.6659 12.4834 14.6667 12.0002 14.6667V15.6667ZM14.4852 14.7567L13.5942 14.3027C13.5303 14.4281 13.4283 14.5301 13.3028 14.594L13.7568 15.485L14.2108 16.376C14.7126 16.1204 15.1205 15.7124 15.3762 15.2107L14.4852 14.7567ZM7.00016 1.41668L6.40016 0.616677L0.822385 4.80001L1.42238 5.60001L2.02238 6.40001L7.60016 2.21668L7.00016 1.41668ZM1.42238 5.73334L0.822385 6.53334L6.40016 10.7167L7.00016 9.91668L7.60016 9.11668L2.02239 4.93334L1.42238 5.73334ZM9.00016 9.91668L9.60016 10.7167L15.1779 6.53334L14.5779 5.73334L13.9779 4.93334L8.40016 9.11668L9.00016 9.91668ZM14.5779 5.60001L15.1779 4.80001L9.60016 0.616677L9.00016 1.41668L8.40016 2.21668L13.9779 6.40001L14.5779 5.60001ZM14.5779 5.73334L15.1779 6.53334C15.7557 6.10001 15.7557 5.23334 15.1779 4.80001L14.5779 5.60001L13.9779 6.40001C13.4891 6.03334 13.4891 5.30001 13.9779 4.93334L14.5779 5.73334ZM7.00016 9.91668L6.40016 10.7167C7.34831 11.4278 8.65201 11.4278 9.60016 10.7167L9.00016 9.91668L8.40016 9.11668C8.16313 9.29445 7.8372 9.29445 7.60016 9.11668L7.00016 9.91668ZM1.42238 5.60001L0.822385 4.80001C0.244605 5.23334 0.244609 6.10001 0.822385 6.53334L1.42238 5.73334L2.02238 4.93334C2.51127 5.30001 2.51128 6.03334 2.02238 6.40001L1.42238 5.60001ZM7.00016 1.41668L7.60016 2.21668C7.8372 2.0389 8.16313 2.0389 8.40016 2.21668L9.00016 1.41668L9.60016 0.616677C8.65201 -0.0944344 7.34831 -0.094434 6.40016 0.616677L7.00016 1.41668Z" fill="#2C2C2C"/>
</svg>
