<svg width="40" height="40" viewBox="0 0 40 40" fill="none" xmlns="http://www.w3.org/2000/svg">
<rect width="40" height="40" rx="20" fill="#F5F5F5"/>
<path d="M27.6667 16.6667C27.6667 16.1144 27.219 15.6667 26.6667 15.6667C26.1144 15.6667 25.6667 16.1144 25.6667 16.6667H26.6667H27.6667ZM14.3334 16.6667C14.3334 16.1144 13.8857 15.6667 13.3334 15.6667C12.7811 15.6667 12.3334 16.1144 12.3334 16.6667H13.3334H14.3334ZM14.2434 26.485L14.6974 25.594H14.6974L14.2434 26.485ZM13.515 25.7566L14.406 25.3027L14.406 25.3027L13.515 25.7566ZM26.4851 25.7566L25.594 25.3027V25.3027L26.4851 25.7566ZM25.7567 26.485L25.3027 25.594H25.3027L25.7567 26.485ZM19 12.4167L19.6 13.2167L19 12.4167ZM13.4223 16.6L14.0223 17.4H14.0223L13.4223 16.6ZM13.4223 16.7333L14.0223 15.9333L14.0223 15.9333L13.4223 16.7333ZM19 20.9167L18.4 21.7167H18.4L19 20.9167ZM21 20.9167L21.6 21.7167L21 20.9167ZM26.5778 16.7333L25.9778 15.9333L26.5778 16.7333ZM26.5778 16.6L27.1778 15.8L26.5778 16.6ZM21 12.4167L20.4 13.2167L21 12.4167ZM26.6667 16.6667H25.6667V24H26.6667H27.6667V16.6667H26.6667ZM24 26.6667V25.6667H16V26.6667V27.6667H24V26.6667ZM13.3334 24H14.3334V16.6667H13.3334H12.3334V24H13.3334ZM16 26.6667V25.6667C15.5168 25.6667 15.2146 25.6659 14.9868 25.6473C14.7707 25.6296 14.7112 25.601 14.6974 25.594L14.2434 26.485L13.7894 27.376C14.1321 27.5506 14.4842 27.6129 14.8239 27.6406C15.152 27.6674 15.5498 27.6667 16 27.6667V26.6667ZM13.3334 24H12.3334C12.3334 24.4502 12.3326 24.848 12.3594 25.1761C12.3872 25.5159 12.4494 25.8679 12.624 26.2106L13.515 25.7566L14.406 25.3027C14.399 25.2889 14.3704 25.2293 14.3528 25.0132C14.3342 24.7855 14.3334 24.4832 14.3334 24H13.3334ZM14.2434 26.485L14.6974 25.594C14.5719 25.5301 14.47 25.4281 14.406 25.3027L13.515 25.7566L12.624 26.2106C12.8797 26.7124 13.2876 27.1204 13.7894 27.376L14.2434 26.485ZM26.6667 24H25.6667C25.6667 24.4832 25.6659 24.7855 25.6473 25.0132C25.6297 25.2293 25.6011 25.2889 25.594 25.3027L26.4851 25.7566L27.3761 26.2106C27.5507 25.8679 27.6129 25.5159 27.6407 25.1761C27.6675 24.848 27.6667 24.4502 27.6667 24H26.6667ZM24 26.6667V27.6667C24.4502 27.6667 24.848 27.6674 25.1761 27.6406C25.5159 27.6129 25.868 27.5506 26.2107 27.376L25.7567 26.485L25.3027 25.594C25.2889 25.601 25.2294 25.6296 25.0133 25.6473C24.7855 25.6659 24.4833 25.6667 24 25.6667V26.6667ZM26.4851 25.7566L25.594 25.3027C25.5301 25.4281 25.4281 25.5301 25.3027 25.594L25.7567 26.485L26.2107 27.376C26.7124 27.1204 27.1204 26.7124 27.3761 26.2106L26.4851 25.7566ZM19 12.4167L18.4 11.6167L12.8223 15.8L13.4223 16.6L14.0223 17.4L19.6 13.2167L19 12.4167ZM13.4223 16.7333L12.8223 17.5333L18.4 21.7167L19 20.9167L19.6 20.1167L14.0223 15.9333L13.4223 16.7333ZM21 20.9167L21.6 21.7167L27.1778 17.5333L26.5778 16.7333L25.9778 15.9333L20.4 20.1167L21 20.9167ZM26.5778 16.6L27.1778 15.8L21.6 11.6167L21 12.4167L20.4 13.2167L25.9778 17.4L26.5778 16.6ZM26.5778 16.7333L27.1778 17.5333C27.7556 17.1 27.7556 16.2333 27.1778 15.8L26.5778 16.6L25.9778 17.4C25.4889 17.0333 25.4889 16.3 25.9778 15.9333L26.5778 16.7333ZM19 20.9167L18.4 21.7167C19.3482 22.4278 20.6519 22.4278 21.6 21.7167L21 20.9167L20.4 20.1167C20.163 20.2944 19.8371 20.2944 19.6 20.1167L19 20.9167ZM13.4223 16.6L12.8223 15.8C12.2445 16.2333 12.2445 17.1 12.8223 17.5333L13.4223 16.7333L14.0223 15.9333C14.5112 16.3 14.5112 17.0333 14.0223 17.4L13.4223 16.6ZM19 12.4167L19.6 13.2167C19.8371 13.0389 20.163 13.0389 20.4 13.2167L21 12.4167L21.6 11.6167C20.6519 10.9056 19.3482 10.9056 18.4 11.6167L19 12.4167Z" fill="#2C2C2C"/>
</svg>
