<svg width="16" height="16" viewBox="0 0 16 16" fill="none" xmlns="http://www.w3.org/2000/svg">
<path d="M14.1364 15.197C14.4293 15.4899 14.9041 15.4899 15.197 15.197C15.4899 14.9041 15.4899 14.4293 15.197 14.1364L14.6667 14.6667L14.1364 15.197ZM12.3138 6.82357H11.5638C11.5638 9.44151 9.44151 11.5638 6.82357 11.5638V12.3138V13.0638C10.2699 13.0638 13.0638 10.2699 13.0638 6.82357H12.3138ZM6.82357 12.3138V11.5638C4.20563 11.5638 2.08337 9.44151 2.08337 6.82357H1.33337H0.583374C0.583374 10.2699 3.3772 13.0638 6.82357 13.0638V12.3138ZM1.33337 6.82357H2.08337C2.08337 4.20563 4.20563 2.08337 6.82357 2.08337V1.33337V0.583374C3.3772 0.583374 0.583374 3.3772 0.583374 6.82357H1.33337ZM6.82357 1.33337V2.08337C9.44151 2.08337 11.5638 4.20563 11.5638 6.82357H12.3138H13.0638C13.0638 3.3772 10.2699 0.583374 6.82357 0.583374V1.33337ZM10.7451 10.7451L10.2148 11.2755L14.1364 15.197L14.6667 14.6667L15.197 14.1364L11.2755 10.2148L10.7451 10.7451Z" fill="white"/>
</svg>
