<svg width="16" height="16" viewBox="0 0 16 16" fill="none" xmlns="http://www.w3.org/2000/svg">
<path d="M14.1364 15.197C14.4293 15.4899 14.9041 15.4899 15.197 15.197C15.4899 14.9041 15.4899 14.4292 15.197 14.1363L14.6667 14.6666L14.1364 15.197ZM12.3138 6.82351H11.5638C11.5638 9.44145 9.44151 11.5637 6.82357 11.5637V12.3137V13.0637C10.2699 13.0637 13.0638 10.2699 13.0638 6.82351H12.3138ZM6.82357 12.3137V11.5637C4.20563 11.5637 2.08337 9.44145 2.08337 6.82351H1.33337H0.583374C0.583374 10.2699 3.3772 13.0637 6.82357 13.0637V12.3137ZM1.33337 6.82351H2.08337C2.08337 4.20557 4.20563 2.08331 6.82357 2.08331V1.33331V0.583313C3.3772 0.583313 0.583374 3.37714 0.583374 6.82351H1.33337ZM6.82357 1.33331V2.08331C9.44151 2.08331 11.5638 4.20557 11.5638 6.82351H12.3138H13.0638C13.0638 3.37714 10.2699 0.583313 6.82357 0.583313V1.33331ZM10.7451 10.7451L10.2148 11.2754L14.1364 15.197L14.6667 14.6666L15.197 14.1363L11.2755 10.2147L10.7451 10.7451Z" fill="#2C2C2C"/>
</svg>
