<svg width="20" height="19" viewBox="0 0 20 19" fill="none" xmlns="http://www.w3.org/2000/svg">
<path d="M10.9167 17.8903H16.6695C16.9902 17.8903 17.2118 17.5694 17.0981 17.2696L16.642 16.0658C16.4024 15.4333 16.5335 14.7223 16.92 14.1673C17.5007 13.3333 18.25 12.0396 18.25 10.9166M15.5 8.625C15.5 12.422 12.422 15.5 8.625 15.5H2.41379C2.09311 15.5 1.87157 15.1791 1.98518 14.8793L2.57281 13.3283C2.78294 12.7738 2.69665 12.1588 2.43751 11.6253C1.99705 10.7187 1.75 9.7007 1.75 8.625C1.75 4.82804 4.82804 1.75 8.625 1.75C12.422 1.75 15.5 4.82804 15.5 8.625Z" stroke="#1D1D1D" stroke-width="2" stroke-linecap="round"/>
</svg>
