<svg width="14" height="12" viewBox="0 0 14 12" fill="none" xmlns="http://www.w3.org/2000/svg">
<path fill-rule="evenodd" clip-rule="evenodd" d="M11.3221 11.1934L11.3226 11.1922L11.3342 11.1632L13.3333 1.08387V1.05113C13.3333 0.799995 13.2406 0.580756 13.0386 0.449249C12.8619 0.334141 12.6587 0.325944 12.5162 0.336758C12.3656 0.348194 12.2235 0.385804 12.1251 0.417111C12.0745 0.433218 12.0322 0.448737 12.0019 0.460475C11.9867 0.466365 11.9744 0.471364 11.9654 0.475089L11.9566 0.478794L0.810063 4.85142L0.806995 4.85252C0.800975 4.85471 0.793014 4.85768 0.783398 4.86142C0.764228 4.86888 0.738135 4.87956 0.707482 4.89345C0.647295 4.92073 0.564137 4.96283 0.479802 5.02058C0.336567 5.11867 0.0638243 5.35088 0.109879 5.71903C0.148026 6.02397 0.358228 6.21764 0.499941 6.31791C0.575907 6.37166 0.648582 6.41042 0.701801 6.43575C0.728766 6.44859 0.751671 6.45842 0.768729 6.46537C0.777282 6.46885 0.784432 6.47164 0.789965 6.47374L0.797049 6.47638L0.801577 6.47806L2.75174 7.1346C2.74516 7.25695 2.75729 7.38171 2.78974 7.5048L3.7666 11.2104C3.88242 11.6498 4.2799 11.9558 4.73428 11.9555C5.14157 11.9552 5.50279 11.7088 5.65625 11.3412L7.18137 9.71048L9.80068 11.7186L9.83793 11.7349C10.0759 11.8387 10.2982 11.8716 10.5015 11.8439C10.7045 11.8161 10.8658 11.731 10.987 11.6341C11.1062 11.5387 11.188 11.431 11.2394 11.3499C11.2655 11.3088 11.2849 11.2726 11.2984 11.2453C11.3052 11.2316 11.3106 11.2201 11.3146 11.211L11.3196 11.1994L11.3214 11.1951L11.3221 11.1934ZM3.75667 7.24989C3.73447 7.16567 3.76933 7.07676 3.84285 7.03007L10.4575 2.82946C10.4575 2.82946 10.8466 2.59327 10.8327 2.82946C10.8327 2.82946 10.9021 2.87118 10.6936 3.06566C10.4959 3.25038 5.97918 7.61108 5.52216 8.05234C5.49577 8.07781 5.48003 8.10703 5.47073 8.1425L4.73353 10.9555L3.75667 7.24989Z" fill="white"/>
</svg>
