<svg width="40" height="40" viewBox="0 0 40 40" fill="none" xmlns="http://www.w3.org/2000/svg">
<rect width="40" height="40" rx="20" fill="#E1FFDF"/>
<path d="M12.5 14.1667L18.9767 19.2041C19.5786 19.6723 20.4213 19.6723 21.0232 19.2041L27.5 14.1667M14.3333 26.6667H25.6666C26.6 26.6667 27.0668 26.6667 27.4233 26.485C27.7369 26.3252 27.9918 26.0702 28.1516 25.7566C28.3333 25.4001 28.3333 24.9334 28.3333 24V16C28.3333 15.0666 28.3333 14.5999 28.1516 14.2433C27.9918 13.9297 27.7369 13.6748 27.4233 13.515C27.0668 13.3333 26.6 13.3333 25.6666 13.3333H14.3333C13.3999 13.3333 12.9332 13.3333 12.5766 13.515C12.263 13.6748 12.0081 13.9297 11.8483 14.2433C11.6666 14.5999 11.6666 15.0666 11.6666 16V24C11.6666 24.9334 11.6666 25.4001 11.8483 25.7566C12.0081 26.0702 12.263 26.3252 12.5766 26.485C12.9332 26.6667 13.3999 26.6667 14.3333 26.6667Z" stroke="#10BC00" stroke-width="2"/>
</svg>
